<svg fill="#333333" height="200px" width="200px" version="1.1" id="Layer_1" xmlns="http://www.w3.org/2000/svg" xmlns:xlink="http://www.w3.org/1999/xlink" viewBox="0 0 512 512" xml:space="preserve"><g id="SVGRepo_bgCarrier" stroke-width="0"></g><g id="SVGRepo_tracerCarrier" stroke-linecap="round" stroke-linejoin="round"></g><g id="SVGRepo_iconCarrier"> <g> <g> <path d="M501.801,47.923H10.199C4.567,47.923,0,52.489,0,58.122v322.581c0,5.633,4.567,10.199,10.199,10.199h179.845v52.776 h-36.179c-5.632,0-10.199,4.566-10.199,10.199c0,5.633,4.567,10.199,10.199,10.199h204.27c5.632,0,10.199-4.566,10.199-10.199 c0-5.633-4.567-10.199-10.199-10.199h-36.179v-34.607l7.693-7.693c3.546,1.767,7.204,3.283,10.952,4.543v14.789 c0,2.705,1.075,5.299,2.987,7.212c1.913,1.912,4.507,2.987,7.212,2.987l34.782-0.001c5.633,0,10.199-4.566,10.199-10.199V405.92 c3.749-1.259,7.407-2.776,10.951-4.543l10.462,10.461c3.984,3.983,10.44,3.983,14.425,0l20.938-20.937h49.243 c5.632,0,10.199-4.566,10.199-10.199V58.122C512,52.489,507.433,47.923,501.801,47.923z M301.558,443.679h-91.116v-52.776h73.383 l17.732,17.731V443.679z M432.664,338.894c-1.635,7.017-4.402,13.692-8.229,19.841c-1.006,1.617-1.54,3.484-1.54,5.389 c0,2.764,1.116,5.359,3.017,7.245l8.665,8.666l-10.172,10.171l-8.693-8.694c-0.775-0.775-1.671-1.421-2.652-1.911 c-2.87-1.436-6.254-1.436-9.124,0c-0.284,0.142-0.56,0.297-0.829,0.464c-6.147,3.826-12.821,6.594-19.838,8.228 c-4.618,1.075-7.886,5.191-7.886,9.933l-0.001,12.287H361v-12.287c0-4.742-3.268-8.859-7.886-9.934 c-7.018-1.634-13.692-4.401-19.839-8.228c-0.269-0.167-0.545-0.322-0.829-0.464c-2.87-1.435-6.254-1.435-9.124,0 c-0.981,0.49-1.876,1.135-2.652,1.91l-8.694,8.694l-10.171-10.171l8.665-8.666c1.9-1.886,3.017-4.48,3.017-7.243 c0-1.905-0.533-3.772-1.54-5.389c-3.827-6.148-6.595-12.823-8.229-19.841c-1.075-4.618-5.191-7.886-9.933-7.886h-12.287 l0.001-14.383h12.286c4.742,0,8.858-3.268,9.933-7.886c1.635-7.017,4.402-13.692,8.229-19.841c1.006-1.617,1.54-3.484,1.54-5.389 c0-2.763-1.117-5.358-3.017-7.243l-8.665-8.666l10.172-10.171l8.693,8.694c0.775,0.775,1.671,1.421,2.652,1.911 c2.871,1.437,6.255,1.436,9.124,0c0.284-0.142,0.56-0.297,0.829-0.464c6.147-3.826,12.821-6.594,19.84-8.228 c4.618-1.075,7.886-5.191,7.886-9.934V237.12h14.384v12.287c0,4.742,3.268,8.858,7.886,9.934 c7.017,1.634,13.691,4.402,19.838,8.228c0.269,0.167,0.545,0.322,0.829,0.464c2.871,1.436,6.255,1.435,9.124,0 c0.981-0.49,1.876-1.135,2.652-1.91l8.694-8.694l10.171,10.171l-8.665,8.666c-1.9,1.886-3.017,4.48-3.017,7.243 c0,1.905,0.533,3.772,1.54,5.389c3.827,6.148,6.595,12.823,8.229,19.841c1.075,4.618,5.191,7.886,9.933,7.886h12.287v14.383 h-12.287C437.856,331.008,433.74,334.276,432.664,338.894z M491.602,370.504h-37.705l-8.144-8.144 c1.765-3.546,3.283-7.204,4.543-10.952h14.789c5.633,0,10.199-4.567,10.199-10.199l-0.001-34.781 c0-5.632-4.567-10.199-10.199-10.199h-14.789c-1.259-3.749-2.776-7.406-4.542-10.952l10.461-10.462 c3.983-3.983,3.983-10.442,0-14.425l-24.594-24.593c-3.984-3.983-10.44-3.983-14.425,0l-10.461,10.461 c-3.546-1.766-7.203-3.283-10.951-4.543l-0.001-14.79c0-5.633-4.567-10.199-10.199-10.199l-34.781,0.001 c-5.633,0-10.199,4.566-10.199,10.199v14.789c-3.75,1.26-7.407,2.776-10.952,4.543l-10.462-10.461 c-3.984-3.983-10.44-3.983-14.425,0l-24.593,24.593c-3.983,3.983-3.983,10.442,0,14.425l10.461,10.462 c-1.766,3.546-3.283,7.204-4.543,10.952h-14.789c-5.633,0-10.199,4.567-10.199,10.199l0.001,34.781 c0,5.632,4.567,10.199,10.199,10.199h14.789c1.259,3.749,2.776,7.406,4.542,10.952l-8.144,8.144H20.398V130.343h44.318 c5.632,0,10.199-4.566,10.199-10.199V98.932h57.204v21.211c0,5.633,4.567,10.199,10.199,10.199h349.283V370.504z M491.602,109.944 H152.518V88.733c0-5.633-4.567-10.199-10.199-10.199H64.716c-5.632,0-10.199,4.566-10.199,10.199v21.211H20.398V68.321h471.203 V109.944z"></path> </g> </g> <g> <g> <path d="M469.163,79.038h-2.04c-5.632,0-10.199,4.566-10.199,10.199c0,5.633,4.567,10.199,10.199,10.199h2.04 c5.632,0,10.199-4.566,10.199-10.199C479.363,83.604,474.795,79.038,469.163,79.038z"></path> </g> </g> <g> <g> <path d="M432.446,79.038h-2.04c-5.632,0-10.199,4.566-10.199,10.199c0,5.633,4.567,10.199,10.199,10.199h2.04 c5.632,0,10.199-4.566,10.199-10.199C442.645,83.604,438.078,79.038,432.446,79.038z"></path> </g> </g> <g> <g> <path d="M395.729,79.038h-2.04c-5.632,0-10.199,4.566-10.199,10.199c0,5.633,4.567,10.199,10.199,10.199h2.04 c5.632,0,10.199-4.566,10.199-10.199C405.928,83.604,401.361,79.038,395.729,79.038z"></path> </g> </g> <g> <g> <path d="M447.745,171.347h-6.12c-5.632,0-10.199,4.566-10.199,10.199c0,5.633,4.567,10.199,10.199,10.199h6.12 c5.632,0,10.199-4.566,10.199-10.199C457.944,175.913,453.377,171.347,447.745,171.347z"></path> </g> </g> <g> <g> <path d="M405.928,171.347H64.255c-5.632,0-10.199,4.566-10.199,10.199c0,5.633,4.567,10.199,10.199,10.199h341.673 c5.632,0,10.199-4.566,10.199-10.199C416.128,175.913,411.56,171.347,405.928,171.347z"></path> </g> </g> <g> <g> <path d="M288.637,211.124H64.255c-5.632,0-10.199,4.566-10.199,10.199c0,5.633,4.567,10.199,10.199,10.199h224.382 c5.632,0,10.199-4.566,10.199-10.199C298.837,215.69,294.269,211.124,288.637,211.124z"></path> </g> </g> <g> <g> <path d="M368.191,281.403c-23.388,0-42.414,19.028-42.414,42.414c0,23.387,19.027,42.415,42.414,42.415 c23.388,0,42.414-19.028,42.414-42.414C410.606,300.432,391.579,281.403,368.191,281.403z M368.191,345.835 c-12.139,0-22.016-9.877-22.016-22.016s9.877-22.016,22.016-22.016s22.016,9.877,22.016,22.016S380.33,345.835,368.191,345.835z"></path> </g> </g> </g></svg>